<svg width="914" height="198" viewBox="0 0 914 198" fill="none" xmlns="http://www.w3.org/2000/svg">
<g style="mix-blend-mode:multiply" opacity="0.1">
<path d="M21.6686 84.3453L1 87.6562V198H913V47.4375L893.623 52.9365H872.955L863.266 58.0855H850.348C846.904 58.9436 839.756 60.6599 838.722 60.6599C837.689 60.6599 830.972 61.6897 827.742 62.2046L799.969 63.7493L783.822 65.8089L757.986 63.7493L744.422 62.2046L725.045 65.8089H705.023L688.229 62.2046C681.771 61.6897 668.594 60.6599 667.561 60.6599C666.527 60.6599 658.088 59.6301 653.997 59.1153H643.663L619.119 60.6599L597.805 62.2046L588.116 65.8089L559.051 67.3536L544.195 68.8983L527.402 71.4728L511.255 77.6516H504.15L484.773 76.1069L466.042 71.4728L449.895 68.8983H440.207L423.414 67.3536L399.516 68.8983H376.909L354.303 71.4728L331.697 74.5622L314.904 77.6516L296.819 79.1963L272.275 77.6516L252.898 79.1963L233.521 80.741L215.436 79.1963L190.892 82.8006L170.224 80.741L149.555 82.8006H129.533L108.218 84.3453H86.2578L64.2975 85.89L42.983 82.8006L21.6686 84.3453Z" fill="url(#paint0_linear_228_8634)"/>
</g>
<path d="M1 87.6563L21.6686 84.3453L42.983 82.8006L64.2974 85.89L86.2578 84.3453H108.218L129.533 82.8006H149.555L170.224 80.741L190.892 82.8006L215.436 79.1963L233.521 80.741L252.898 79.1963L272.275 77.6516L296.819 79.1963L314.904 77.6516L331.697 74.5622L354.303 71.4728L376.909 68.8983H399.516L423.414 67.3536L440.207 68.8983H449.895L466.042 71.4728L484.773 76.1069L504.15 77.6516H511.255L527.402 71.4728L544.195 68.8983L559.051 67.3536L588.116 65.8089L597.805 62.2046L619.119 60.6599L643.663 59.1153H653.997C658.088 59.6301 666.527 60.6599 667.561 60.6599C668.594 60.6599 681.771 61.6897 688.229 62.2046L705.023 65.8089H725.045L744.422 62.2046L757.986 63.7493L783.821 65.8089L799.969 63.7493L827.742 62.2046C830.972 61.6897 837.689 60.6599 838.722 60.6599C839.756 60.6599 846.904 58.9436 850.348 58.0855H863.266L872.955 52.9365H893.623L913 47.4375" stroke="#7F56D9" stroke-width="2" stroke-linecap="round" stroke-linejoin="round"/>
<path d="M1 127.713L21.6686 125.604L42.983 124.62L64.2975 126.587L86.2578 125.604H108.218L129.533 124.62H149.555L170.224 123.308L190.892 124.62L215.436 122.324L233.521 123.308L252.898 122.324L272.275 121.34L296.819 122.324L314.904 121.34L331.697 119.372L354.303 117.404L376.909 115.764H399.516L423.414 114.78L440.207 115.764H449.895L466.042 117.404L484.773 120.356L504.15 121.34H511.255L527.402 117.404L544.195 115.764L559.051 114.78L588.116 113.796L597.805 111.5L619.119 110.516L643.663 109.532H653.997C658.088 109.86 666.527 110.516 667.561 110.516C668.594 110.516 681.771 111.172 688.229 111.5L705.023 113.796H725.045L744.422 111.5L757.986 112.484L783.822 113.796L799.969 112.484L827.742 111.5C830.972 111.172 837.689 110.516 838.722 110.516C839.756 110.516 846.904 109.423 850.348 108.876H863.266L872.955 105.597H893.623L913 102.094" stroke="#B692F6" stroke-width="2" stroke-linecap="round" stroke-linejoin="round"/>
<path d="M1 178.406L21.6686 172.803L42.983 170.189L64.2975 175.417L86.2578 172.803H108.218L129.533 170.189H149.555L170.224 166.704L190.892 170.189L215.436 164.089L233.521 166.704L252.898 164.089L272.275 161.475L296.819 164.089L314.904 161.475L331.697 156.247L354.303 151.019L376.909 146.662H399.516L423.414 144.048L440.207 146.662H449.895L466.042 151.019L484.773 158.861L504.15 161.475H511.255L527.402 151.019L544.195 146.662L559.051 144.048L588.116 141.434L597.805 135.334L619.119 132.72L643.663 130.106H653.997C658.088 130.977 666.527 132.72 667.561 132.72C668.594 132.72 681.771 134.463 688.229 135.334L705.023 141.434H725.045L744.422 135.334L757.986 137.948L783.822 141.434L799.969 137.948L827.742 135.334C830.972 134.463 837.689 132.72 838.722 132.72C839.756 132.72 846.904 129.816 850.348 128.363H863.266L872.955 119.65H893.623L913 110.344" stroke="#53389E" stroke-width="2" stroke-linecap="round" stroke-linejoin="round"/>
<defs>
<linearGradient id="paint0_linear_228_8634" x1="457" y1="47.4375" x2="457" y2="191.297" gradientUnits="userSpaceOnUse">
<stop stop-color="#7F56D9"/>
<stop offset="1" stop-color="#7F56D9" stop-opacity="0"/>
</linearGradient>
</defs>
</svg>
