<svg width="240" height="240" viewBox="0 0 240 240" fill="none" xmlns="http://www.w3.org/2000/svg">
<path d="M120 8C134.708 8 149.272 10.897 162.861 16.5255C176.449 22.154 188.796 30.4039 199.196 40.804C209.596 51.2042 217.846 63.551 223.475 77.1395C229.103 90.7279 232 105.292 232 120C232 134.708 229.103 149.272 223.474 162.861C217.846 176.449 209.596 188.796 199.196 199.196C188.796 209.596 176.449 217.846 162.861 223.475C149.272 229.103 134.708 232 120 232C105.292 232 90.7279 229.103 77.1394 223.474C63.551 217.846 51.2042 209.596 40.804 199.196C30.4038 188.796 22.154 176.449 16.5255 162.86C10.897 149.272 7.99999 134.708 8 120C8.00001 105.292 10.897 90.7279 16.5255 77.1394C22.1541 63.5509 30.4039 51.2042 40.8041 40.804C51.2043 30.4038 63.551 22.154 77.1395 16.5255C90.728 10.8969 105.292 7.99999 120 8L120 8Z" stroke="#F2F4F7" stroke-width="16" stroke-linecap="round" stroke-linejoin="round"/>
<path d="M120 8C145.635 8 170.494 16.7939 190.427 32.9134C210.359 49.0329 224.159 71.5024 229.522 96.5701C234.885 121.638 231.486 147.787 219.893 170.65C208.3 193.514 189.214 211.709 165.823 222.197C142.432 232.685 116.15 234.832 91.3674 228.278C66.5843 221.725 44.7994 206.868 29.65 186.188C14.5006 165.509 6.90372 140.258 8.12775 114.652C9.35178 89.0465 19.3226 64.6356 36.3755 45.4953" stroke="#53389E" stroke-width="16" stroke-linecap="round" stroke-linejoin="round"/>
<path d="M120 28C132.082 28 144.045 30.3797 155.207 35.0031C166.369 39.6265 176.511 46.4032 185.054 54.9462C193.597 63.4892 200.373 73.6312 204.997 84.7931C209.62 95.9551 212 107.918 212 120C212 132.082 209.62 144.045 204.997 155.207C200.373 166.369 193.597 176.511 185.054 185.054C176.511 193.597 166.369 200.373 155.207 204.997C144.045 209.62 132.082 212 120 212C107.918 212 95.955 209.62 84.7931 204.997C73.6311 200.373 63.4891 193.597 54.9461 185.054C46.4032 176.511 39.6265 166.369 35.0031 155.207C30.3796 144.045 28 132.082 28 120C28 107.918 30.3797 95.955 35.0031 84.7931C39.6265 73.6311 46.4032 63.4891 54.9462 54.9461C63.4892 46.4032 73.6312 39.6265 84.7932 35.0031C95.9551 30.3796 107.918 28 120 28L120 28Z" stroke="#F2F4F7" stroke-width="16" stroke-linecap="round" stroke-linejoin="round"/>
<path d="M120 28C138.791 28 157.132 33.7544 172.556 44.4892C187.979 55.224 199.746 70.4243 206.272 88.0459C212.799 105.668 213.773 124.865 209.064 143.057C204.354 161.249 194.187 177.562 179.929 189.803C165.672 202.044 148.008 209.625 129.313 211.527C110.618 213.43 91.7887 209.561 75.3578 200.443C58.9269 191.325 45.6823 177.393 37.4053 160.523C29.1282 143.653 26.2158 124.652 29.0596 106.077" stroke="#7F56D9" stroke-width="16" stroke-linecap="round" stroke-linejoin="round"/>
<path d="M120 48C129.455 48 138.818 49.8623 147.553 53.4807C156.289 57.099 164.226 62.4025 170.912 69.0883C177.598 75.7741 182.901 83.7114 186.519 92.4468C190.138 101.182 192 110.545 192 120C192 129.455 190.138 138.818 186.519 147.553C182.901 156.289 177.597 164.226 170.912 170.912C164.226 177.598 156.289 182.901 147.553 186.519C138.818 190.138 129.455 192 120 192C110.545 192 101.182 190.138 92.4468 186.519C83.7113 182.901 75.7741 177.597 69.0883 170.912C62.4025 164.226 57.099 156.289 53.4807 147.553C49.8623 138.818 48 129.455 48 120C48 110.545 49.8623 101.182 53.4807 92.4468C57.099 83.7113 62.4025 75.7741 69.0883 69.0883C75.7742 62.4025 83.7114 57.099 92.4468 53.4807C101.182 49.8623 110.545 48 120 48L120 48Z" stroke="#F2F4F7" stroke-width="16" stroke-linecap="round" stroke-linejoin="round"/>
<path d="M120 48C132.526 48 144.835 51.2678 155.712 57.4807C166.588 63.6936 175.656 72.6365 182.019 83.4261C188.382 94.2156 191.82 106.478 191.993 119.003C192.167 131.528 189.069 143.881 183.008 154.843C176.946 165.805 168.129 174.995 157.429 181.507C146.729 188.018 134.514 191.626 121.993 191.972C109.472 192.319 97.0771 189.393 86.0326 183.484C74.9882 177.575 65.6765 168.886 59.0174 158.277" stroke="#B692F6" stroke-width="16" stroke-linecap="round" stroke-linejoin="round"/>
<path d="M92.6501 131.298C91.2297 131.298 89.9584 131.032 88.8362 130.499C87.714 129.96 86.8227 129.221 86.1622 128.283C85.5088 127.346 85.1608 126.273 85.1182 125.066H88.9534C89.0244 125.961 89.4115 126.692 90.1146 127.261C90.8177 127.822 91.6629 128.102 92.6501 128.102C93.4243 128.102 94.1132 127.925 94.7169 127.57C95.3206 127.214 95.7964 126.721 96.1444 126.089C96.4925 125.457 96.6629 124.736 96.6558 123.926C96.6629 123.102 96.4889 122.371 96.1338 121.732C95.7787 121.092 95.2922 120.592 94.6743 120.229C94.0564 119.86 93.3461 119.675 92.5436 119.675C91.8902 119.668 91.2474 119.789 90.6153 120.038C89.9832 120.286 89.4825 120.613 89.1132 121.018L85.5443 120.432L86.6842 109.182H99.3405V112.484H89.9548L89.3263 118.269H89.4541C89.8589 117.793 90.4307 117.399 91.1693 117.087C91.9079 116.767 92.7176 116.607 93.5983 116.607C94.9193 116.607 96.0983 116.92 97.1352 117.545C98.1721 118.163 98.9889 119.015 99.5855 120.102C100.182 121.188 100.48 122.431 100.48 123.83C100.48 125.272 100.147 126.558 99.479 127.687C98.8184 128.809 97.8987 129.693 96.7197 130.339C95.5479 130.979 94.1913 131.298 92.6501 131.298ZM112.114 131.415C110.36 131.415 108.854 130.972 107.597 130.084C106.347 129.189 105.384 127.9 104.71 126.217C104.042 124.526 103.708 122.491 103.708 120.112C103.715 117.733 104.053 115.709 104.72 114.04C105.395 112.364 106.358 111.085 107.608 110.205C108.865 109.324 110.367 108.884 112.114 108.884C113.861 108.884 115.363 109.324 116.62 110.205C117.877 111.085 118.84 112.364 119.507 114.04C120.182 115.716 120.519 117.74 120.519 120.112C120.519 122.499 120.182 124.537 119.507 126.227C118.84 127.911 117.877 129.196 116.62 130.084C115.37 130.972 113.868 131.415 112.114 131.415ZM112.114 128.081C113.478 128.081 114.554 127.41 115.342 126.067C116.137 124.718 116.535 122.733 116.535 120.112C116.535 118.379 116.354 116.923 115.992 115.744C115.63 114.565 115.118 113.678 114.458 113.081C113.797 112.477 113.016 112.175 112.114 112.175C110.757 112.175 109.685 112.85 108.897 114.2C108.108 115.542 107.71 117.513 107.703 120.112C107.696 121.852 107.87 123.315 108.225 124.501C108.588 125.687 109.099 126.582 109.759 127.186C110.42 127.783 111.205 128.081 112.114 128.081ZM143.166 126.909V125.759C143.166 124.913 143.343 124.136 143.699 123.425C144.061 122.715 144.586 122.143 145.275 121.71C145.964 121.277 146.799 121.06 147.779 121.06C148.787 121.06 149.633 121.277 150.314 121.71C150.996 122.136 151.511 122.705 151.859 123.415C152.214 124.125 152.392 124.906 152.392 125.759V126.909C152.392 127.754 152.214 128.532 151.859 129.242C151.504 129.952 150.982 130.524 150.293 130.957C149.611 131.391 148.773 131.607 147.779 131.607C146.785 131.607 145.943 131.391 145.254 130.957C144.565 130.524 144.043 129.952 143.688 129.242C143.34 128.532 143.166 127.754 143.166 126.909ZM145.946 125.759V126.909C145.946 127.47 146.081 127.985 146.351 128.454C146.621 128.923 147.097 129.157 147.779 129.157C148.468 129.157 148.94 128.926 149.196 128.464C149.459 127.996 149.59 127.477 149.59 126.909V125.759C149.59 125.19 149.466 124.672 149.217 124.203C148.968 123.727 148.489 123.489 147.779 123.489C147.111 123.489 146.639 123.727 146.362 124.203C146.085 124.672 145.946 125.19 145.946 125.759ZM132.076 114.423V113.273C132.076 112.42 132.257 111.639 132.619 110.929C132.981 110.219 133.507 109.651 134.196 109.224C134.885 108.791 135.719 108.575 136.699 108.575C137.701 108.575 138.542 108.791 139.224 109.224C139.913 109.651 140.432 110.219 140.78 110.929C141.128 111.639 141.302 112.42 141.302 113.273V114.423C141.302 115.276 141.124 116.057 140.769 116.767C140.421 117.47 139.902 118.035 139.214 118.461C138.525 118.887 137.687 119.1 136.699 119.1C135.698 119.1 134.853 118.887 134.164 118.461C133.482 118.035 132.964 117.467 132.608 116.756C132.253 116.046 132.076 115.268 132.076 114.423ZM134.878 113.273V114.423C134.878 114.991 135.009 115.51 135.272 115.979C135.542 116.44 136.017 116.671 136.699 116.671C137.381 116.671 137.85 116.44 138.106 115.979C138.368 115.51 138.5 114.991 138.5 114.423V113.273C138.5 112.705 138.375 112.186 138.127 111.717C137.878 111.241 137.402 111.004 136.699 111.004C136.025 111.004 135.552 111.241 135.282 111.717C135.013 112.193 134.878 112.712 134.878 113.273ZM133.29 131L148.29 109.182H150.954L135.954 131H133.29Z" fill="#101828"/>
</svg>
