<svg width="37" height="36" viewBox="0 0 37 36" fill="none" xmlns="http://www.w3.org/2000/svg">
<rect x="2.6665" y="2" width="32" height="32" rx="16" fill="#007AFF" fill-opacity="0.1"/>
<rect x="2.6665" y="2" width="32" height="32" rx="16" stroke="#F9F5FF" stroke-width="4"/>
<path d="M19.3333 11.3335H14.6666C14.313 11.3335 13.9738 11.474 13.7238 11.724C13.4737 11.9741 13.3333 12.3132 13.3333 12.6668V23.3335C13.3333 23.6871 13.4737 24.0263 13.7238 24.2763C13.9738 24.5264 14.313 24.6668 14.6666 24.6668H22.6666C23.0202 24.6668 23.3593 24.5264 23.6094 24.2763C23.8594 24.0263 23.9999 23.6871 23.9999 23.3335V16.0002M19.3333 11.3335L23.9999 16.0002M19.3333 11.3335V16.0002H23.9999" stroke="#1E90FF" stroke-width="1.33333" stroke-linecap="round" stroke-linejoin="round"/>
</svg>
