<svg width="86" height="14" viewBox="0 0 86 14" fill="none" xmlns="http://www.w3.org/2000/svg">
<path d="M13.9412 5.32792C13.8743 5.12025 13.7512 4.93515 13.5856 4.79311C13.42 4.65108 13.2183 4.55764 13.0028 4.52315L9.62216 3.97374L8.05497 0.92833C7.95515 0.734454 7.80385 0.571822 7.61767 0.458279C7.4315 0.344735 7.21765 0.284668 6.99958 0.284668C6.78151 0.284668 6.56766 0.344735 6.38148 0.458279C6.19531 0.571822 6.04401 0.734454 5.94418 0.92833L4.377 3.97374L0.996381 4.52315C0.781151 4.55818 0.579729 4.65182 0.414215 4.79379C0.248701 4.93577 0.125491 5.12059 0.0581037 5.32797C-0.00928335 5.53536 -0.0182434 5.75731 0.0322066 5.96945C0.0826566 6.1816 0.190567 6.37575 0.344098 6.5306L2.75618 8.96217L2.2341 12.3471C2.2006 12.5627 2.2272 12.7834 2.31099 12.9848C2.39478 13.1863 2.53251 13.3607 2.70902 13.489C2.88554 13.6172 3.094 13.6943 3.31149 13.7117C3.52897 13.7292 3.74705 13.6863 3.94175 13.5878L6.99958 12.0452L10.0575 13.5878C10.2522 13.6861 10.4702 13.7288 10.6876 13.7113C10.905 13.6938 11.1134 13.6167 11.2899 13.4885C11.4663 13.3603 11.604 13.1859 11.6879 12.9846C11.7717 12.7832 11.7985 12.5627 11.7651 12.3471L11.2431 8.96217L13.6551 6.5306C13.8092 6.37605 13.9174 6.1819 13.9679 5.96963C14.0184 5.75736 14.0092 5.53526 13.9412 5.32792Z" fill="#D4D4D4"/>
<path d="M31.9412 5.32792C31.8743 5.12025 31.7512 4.93515 31.5856 4.79311C31.42 4.65108 31.2183 4.55764 31.0028 4.52315L27.6222 3.97374L26.055 0.92833C25.9551 0.734454 25.8038 0.571822 25.6177 0.458279C25.4315 0.344735 25.2176 0.284668 24.9996 0.284668C24.7815 0.284668 24.5677 0.344735 24.3815 0.458279C24.1953 0.571822 24.044 0.734454 23.9442 0.92833L22.377 3.97374L18.9964 4.52315C18.7812 4.55818 18.5797 4.65182 18.4142 4.79379C18.2487 4.93577 18.1255 5.12059 18.0581 5.32797C17.9907 5.53536 17.9818 5.75731 18.0322 5.96945C18.0827 6.1816 18.1906 6.37575 18.3441 6.5306L20.7562 8.96217L20.2341 12.3471C20.2006 12.5627 20.2272 12.7834 20.311 12.9848C20.3948 13.1863 20.5325 13.3607 20.709 13.489C20.8855 13.6172 21.094 13.6943 21.3115 13.7117C21.529 13.7292 21.7471 13.6863 21.9417 13.5878L24.9996 12.0452L28.0575 13.5878C28.2522 13.6861 28.4702 13.7288 28.6876 13.7113C28.905 13.6938 29.1134 13.6167 29.2899 13.4885C29.4663 13.3603 29.604 13.1859 29.6879 12.9846C29.7717 12.7832 29.7985 12.5627 29.7651 12.3471L29.2431 8.96217L31.6551 6.5306C31.8092 6.37605 31.9174 6.1819 31.9679 5.96963C32.0184 5.75736 32.0092 5.53526 31.9412 5.32792Z" fill="#FFC700"/>
<path d="M49.9412 5.32792C49.8743 5.12025 49.7512 4.93515 49.5856 4.79311C49.42 4.65108 49.2183 4.55764 49.0028 4.52315L45.6222 3.97374L44.055 0.92833C43.9551 0.734454 43.8038 0.571822 43.6177 0.458279C43.4315 0.344735 43.2176 0.284668 42.9996 0.284668C42.7815 0.284668 42.5677 0.344735 42.3815 0.458279C42.1953 0.571822 42.044 0.734454 41.9442 0.92833L40.377 3.97374L36.9964 4.52315C36.7812 4.55818 36.5797 4.65182 36.4142 4.79379C36.2487 4.93577 36.1255 5.12059 36.0581 5.32797C35.9907 5.53536 35.9818 5.75731 36.0322 5.96945C36.0827 6.1816 36.1906 6.37575 36.3441 6.5306L38.7562 8.96217L38.2341 12.3471C38.2006 12.5627 38.2272 12.7834 38.311 12.9848C38.3948 13.1863 38.5325 13.3607 38.709 13.489C38.8855 13.6172 39.094 13.6943 39.3115 13.7117C39.529 13.7292 39.7471 13.6863 39.9417 13.5878L42.9996 12.0452L46.0575 13.5878C46.2522 13.6861 46.4702 13.7288 46.6876 13.7113C46.905 13.6938 47.1134 13.6167 47.2899 13.4885C47.4663 13.3603 47.604 13.1859 47.6879 12.9846C47.7717 12.7832 47.7985 12.5627 47.7651 12.3471L47.2431 8.96217L49.6551 6.5306C49.8092 6.37605 49.9174 6.1819 49.9679 5.96963C50.0184 5.75736 50.0092 5.53526 49.9412 5.32792Z" fill="#FFC700"/>
<path d="M67.9412 5.32792C67.8743 5.12025 67.7512 4.93515 67.5856 4.79311C67.42 4.65108 67.2183 4.55764 67.0028 4.52315L63.6222 3.97374L62.055 0.92833C61.9551 0.734454 61.8038 0.571822 61.6177 0.458279C61.4315 0.344735 61.2176 0.284668 60.9996 0.284668C60.7815 0.284668 60.5677 0.344735 60.3815 0.458279C60.1953 0.571822 60.044 0.734454 59.9442 0.92833L58.377 3.97374L54.9964 4.52315C54.7812 4.55818 54.5797 4.65182 54.4142 4.79379C54.2487 4.93577 54.1255 5.12059 54.0581 5.32797C53.9907 5.53536 53.9818 5.75731 54.0322 5.96945C54.0827 6.1816 54.1906 6.37575 54.3441 6.5306L56.7562 8.96217L56.2341 12.3471C56.2006 12.5627 56.2272 12.7834 56.311 12.9848C56.3948 13.1863 56.5325 13.3607 56.709 13.489C56.8855 13.6172 57.094 13.6943 57.3115 13.7117C57.529 13.7292 57.7471 13.6863 57.9417 13.5878L60.9996 12.0452L64.0575 13.5878C64.2522 13.6861 64.4702 13.7288 64.6876 13.7113C64.905 13.6938 65.1134 13.6167 65.2899 13.4885C65.4663 13.3603 65.604 13.1859 65.6879 12.9846C65.7717 12.7832 65.7985 12.5627 65.7651 12.3471L65.2431 8.96217L67.6551 6.5306C67.8092 6.37605 67.9174 6.1819 67.9679 5.96963C68.0184 5.75736 68.0092 5.53526 67.9412 5.32792Z" fill="#FFC700"/>
<path d="M85.9412 5.32792C85.8743 5.12025 85.7512 4.93515 85.5856 4.79311C85.42 4.65108 85.2183 4.55764 85.0028 4.52315L81.6222 3.97374L80.055 0.92833C79.9551 0.734454 79.8038 0.571822 79.6177 0.458279C79.4315 0.344735 79.2176 0.284668 78.9996 0.284668C78.7815 0.284668 78.5677 0.344735 78.3815 0.458279C78.1953 0.571822 78.044 0.734454 77.9442 0.92833L76.377 3.97374L72.9964 4.52315C72.7812 4.55818 72.5797 4.65182 72.4142 4.79379C72.2487 4.93577 72.1255 5.12059 72.0581 5.32797C71.9907 5.53536 71.9818 5.75731 72.0322 5.96945C72.0827 6.1816 72.1906 6.37575 72.3441 6.5306L74.7562 8.96217L74.2341 12.3471C74.2006 12.5627 74.2272 12.7834 74.311 12.9848C74.3948 13.1863 74.5325 13.3607 74.709 13.489C74.8855 13.6172 75.094 13.6943 75.3115 13.7117C75.529 13.7292 75.7471 13.6863 75.9417 13.5878L78.9996 12.0452L82.0575 13.5878C82.2522 13.6861 82.4702 13.7288 82.6876 13.7113C82.905 13.6938 83.1134 13.6167 83.2899 13.4885C83.4663 13.3603 83.604 13.1859 83.6879 12.9846C83.7717 12.7832 83.7985 12.5627 83.7651 12.3471L83.2431 8.96217L85.6551 6.5306C85.8092 6.37605 85.9174 6.1819 85.9679 5.96963C86.0184 5.75736 86.0092 5.53526 85.9412 5.32792Z" fill="#FFC700"/>
</svg>
