<svg width="80" height="20" viewBox="0 0 80 20" fill="none" xmlns="http://www.w3.org/2000/svg">
<g clip-path="url(#clip0_118_3379)">
<path d="M9.53834 1.60996C9.70914 1.19932 10.2909 1.19932 10.4617 1.60996L12.5278 6.57744C12.5998 6.75056 12.7626 6.86885 12.9495 6.88383L18.3123 7.31376C18.7556 7.3493 18.9354 7.90256 18.5976 8.19189L14.5117 11.6919C14.3693 11.8139 14.3071 12.0053 14.3506 12.1876L15.5989 17.4208C15.7021 17.8534 15.2315 18.1954 14.8519 17.9635L10.2606 15.1592C10.1006 15.0615 9.89938 15.0615 9.73937 15.1592L5.14806 17.9635C4.76851 18.1954 4.29788 17.8534 4.40108 17.4208L5.64939 12.1876C5.69289 12.0053 5.6307 11.8139 5.48831 11.6919L1.40241 8.19189C1.06464 7.90256 1.24441 7.3493 1.68773 7.31376L7.05054 6.88383C7.23744 6.86885 7.40024 6.75056 7.47225 6.57744L9.53834 1.60996Z" fill="#F2F4F7"/>
<g clip-path="url(#clip1_118_3379)">
<path d="M9.53834 1.60996C9.70914 1.19932 10.2909 1.19932 10.4617 1.60996L12.5278 6.57744C12.5998 6.75056 12.7626 6.86885 12.9495 6.88383L18.3123 7.31376C18.7556 7.3493 18.9354 7.90256 18.5976 8.19189L14.5117 11.6919C14.3693 11.8139 14.3071 12.0053 14.3506 12.1876L15.5989 17.4208C15.7021 17.8534 15.2315 18.1954 14.8519 17.9635L10.2606 15.1592C10.1006 15.0615 9.89938 15.0615 9.73937 15.1592L5.14806 17.9635C4.76851 18.1954 4.29788 17.8534 4.40108 17.4208L5.64939 12.1876C5.69289 12.0053 5.6307 11.8139 5.48831 11.6919L1.40241 8.19189C1.06464 7.90256 1.24441 7.3493 1.68773 7.31376L7.05054 6.88383C7.23744 6.86885 7.40024 6.75056 7.47225 6.57744L9.53834 1.60996Z" fill="#FDB022"/>
</g>
</g>
<g clip-path="url(#clip2_118_3379)">
<path d="M29.5383 1.60996C29.7091 1.19932 30.2909 1.19932 30.4617 1.60996L32.5278 6.57744C32.5998 6.75056 32.7626 6.86885 32.9495 6.88383L38.3123 7.31376C38.7556 7.3493 38.9354 7.90256 38.5976 8.19189L34.5117 11.6919C34.3693 11.8139 34.3071 12.0053 34.3506 12.1876L35.5989 17.4208C35.7021 17.8534 35.2315 18.1954 34.8519 17.9635L30.2606 15.1592C30.1006 15.0615 29.8994 15.0615 29.7394 15.1592L25.1481 17.9635C24.7685 18.1954 24.2979 17.8534 24.4011 17.4208L25.6494 12.1876C25.6929 12.0053 25.6307 11.8139 25.4883 11.6919L21.4024 8.19189C21.0646 7.90256 21.2444 7.3493 21.6877 7.31376L27.0505 6.88383C27.2374 6.86885 27.4002 6.75056 27.4722 6.57744L29.5383 1.60996Z" fill="#F2F4F7"/>
<g clip-path="url(#clip3_118_3379)">
<path d="M29.5383 1.60996C29.7091 1.19932 30.2909 1.19932 30.4617 1.60996L32.5278 6.57744C32.5998 6.75056 32.7626 6.86885 32.9495 6.88383L38.3123 7.31376C38.7556 7.3493 38.9354 7.90256 38.5976 8.19189L34.5117 11.6919C34.3693 11.8139 34.3071 12.0053 34.3506 12.1876L35.5989 17.4208C35.7021 17.8534 35.2315 18.1954 34.8519 17.9635L30.2606 15.1592C30.1006 15.0615 29.8994 15.0615 29.7394 15.1592L25.1481 17.9635C24.7685 18.1954 24.2979 17.8534 24.4011 17.4208L25.6494 12.1876C25.6929 12.0053 25.6307 11.8139 25.4883 11.6919L21.4024 8.19189C21.0646 7.90256 21.2444 7.3493 21.6877 7.31376L27.0505 6.88383C27.2374 6.86885 27.4002 6.75056 27.4722 6.57744L29.5383 1.60996Z" fill="#FDB022"/>
</g>
</g>
<g clip-path="url(#clip4_118_3379)">
<path d="M49.5383 1.60996C49.7091 1.19932 50.2909 1.19932 50.4617 1.60996L52.5278 6.57744C52.5998 6.75056 52.7626 6.86885 52.9495 6.88383L58.3123 7.31376C58.7556 7.3493 58.9354 7.90256 58.5976 8.19189L54.5117 11.6919C54.3693 11.8139 54.3071 12.0053 54.3506 12.1876L55.5989 17.4208C55.7021 17.8534 55.2315 18.1954 54.8519 17.9635L50.2606 15.1592C50.1006 15.0615 49.8994 15.0615 49.7394 15.1592L45.1481 17.9635C44.7685 18.1954 44.2979 17.8534 44.4011 17.4208L45.6494 12.1876C45.6929 12.0053 45.6307 11.8139 45.4883 11.6919L41.4024 8.19189C41.0646 7.90256 41.2444 7.3493 41.6877 7.31376L47.0505 6.88383C47.2374 6.86885 47.4002 6.75056 47.4722 6.57744L49.5383 1.60996Z" fill="#F2F4F7"/>
<g clip-path="url(#clip5_118_3379)">
<path d="M49.5383 1.60996C49.7091 1.19932 50.2909 1.19932 50.4617 1.60996L52.5278 6.57744C52.5998 6.75056 52.7626 6.86885 52.9495 6.88383L58.3123 7.31376C58.7556 7.3493 58.9354 7.90256 58.5976 8.19189L54.5117 11.6919C54.3693 11.8139 54.3071 12.0053 54.3506 12.1876L55.5989 17.4208C55.7021 17.8534 55.2315 18.1954 54.8519 17.9635L50.2606 15.1592C50.1006 15.0615 49.8994 15.0615 49.7394 15.1592L45.1481 17.9635C44.7685 18.1954 44.2979 17.8534 44.4011 17.4208L45.6494 12.1876C45.6929 12.0053 45.6307 11.8139 45.4883 11.6919L41.4024 8.19189C41.0646 7.90256 41.2444 7.3493 41.6877 7.31376L47.0505 6.88383C47.2374 6.86885 47.4002 6.75056 47.4722 6.57744L49.5383 1.60996Z" fill="#FDB022"/>
</g>
</g>
<g clip-path="url(#clip6_118_3379)">
<path d="M69.5383 1.60996C69.7091 1.19932 70.2909 1.19932 70.4617 1.60996L72.5278 6.57744C72.5998 6.75056 72.7626 6.86885 72.9495 6.88383L78.3123 7.31376C78.7556 7.3493 78.9354 7.90256 78.5976 8.19189L74.5117 11.6919C74.3693 11.8139 74.3071 12.0053 74.3506 12.1876L75.5989 17.4208C75.7021 17.8534 75.2315 18.1954 74.8519 17.9635L70.2606 15.1592C70.1006 15.0615 69.8994 15.0615 69.7394 15.1592L65.1481 17.9635C64.7685 18.1954 64.2979 17.8534 64.4011 17.4208L65.6494 12.1876C65.6929 12.0053 65.6307 11.8139 65.4883 11.6919L61.4024 8.19189C61.0646 7.90256 61.2444 7.3493 61.6877 7.31376L67.0505 6.88383C67.2374 6.86885 67.4002 6.75056 67.4722 6.57744L69.5383 1.60996Z" fill="#F2F4F7"/>
<g clip-path="url(#clip7_118_3379)">
<path d="M69.5383 1.60996C69.7091 1.19932 70.2909 1.19932 70.4617 1.60996L72.5278 6.57744C72.5998 6.75056 72.7626 6.86885 72.9495 6.88383L78.3123 7.31376C78.7556 7.3493 78.9354 7.90256 78.5976 8.19189L74.5117 11.6919C74.3693 11.8139 74.3071 12.0053 74.3506 12.1876L75.5989 17.4208C75.7021 17.8534 75.2315 18.1954 74.8519 17.9635L70.2606 15.1592C70.1006 15.0615 69.8994 15.0615 69.7394 15.1592L65.1481 17.9635C64.7685 18.1954 64.2979 17.8534 64.4011 17.4208L65.6494 12.1876C65.6929 12.0053 65.6307 11.8139 65.4883 11.6919L61.4024 8.19189C61.0646 7.90256 61.2444 7.3493 61.6877 7.31376L67.0505 6.88383C67.2374 6.86885 67.4002 6.75056 67.4722 6.57744L69.5383 1.60996Z" fill="#FDB022"/>
</g>
</g>
<defs>
<clipPath id="clip0_118_3379">
<rect width="20" height="20" fill="white"/>
</clipPath>
<clipPath id="clip1_118_3379">
<rect width="20" height="20" fill="white"/>
</clipPath>
<clipPath id="clip2_118_3379">
<rect width="20" height="20" fill="white" transform="translate(20)"/>
</clipPath>
<clipPath id="clip3_118_3379">
<rect width="20" height="20" fill="white" transform="translate(20)"/>
</clipPath>
<clipPath id="clip4_118_3379">
<rect width="20" height="20" fill="white" transform="translate(40)"/>
</clipPath>
<clipPath id="clip5_118_3379">
<rect width="20" height="20" fill="white" transform="translate(40)"/>
</clipPath>
<clipPath id="clip6_118_3379">
<rect width="20" height="20" fill="white" transform="translate(60)"/>
</clipPath>
<clipPath id="clip7_118_3379">
<rect width="20" height="20" fill="white" transform="translate(60)"/>
</clipPath>
</defs>
</svg>
