<svg width="61" height="50" viewBox="0 0 61 50" fill="none" xmlns="http://www.w3.org/2000/svg">
<rect width="19.8699" height="17.2544" transform="matrix(0.974743 -0.223331 0.225003 0.974358 22.0088 12.6034)" fill="#F1F3F9" stroke="#D6DCE8" stroke-width="1.05161" stroke-miterlimit="10"/>
<rect width="15.8959" height="1.69716" transform="matrix(0.974743 -0.223331 0.225003 0.974358 24.3252 13.8127)" fill="#D6DCE8"/>
<path d="M21.3006 11.2174C20.7252 9.88381 21.3405 8.33963 22.6749 7.76837L36.1015 2.02038C37.4359 1.44911 38.9841 2.06708 39.5595 3.40066L40.1992 4.88336L21.9404 12.7001L21.3006 11.2174Z" fill="white" stroke="#D6DCE8" stroke-width="1.05161" stroke-miterlimit="10"/>
<path d="M21.8642 8.11633L21.5652 8.24435C21.0483 8.46562 20.7309 8.95631 20.7072 9.48093L23.849 11.8839L25.7348 11.0766L21.8642 8.11633Z" fill="#D6DCE8"/>
<path d="M29.3534 9.52744L27.4676 10.3347L23.5971 7.37448L25.4828 6.56719L29.3534 9.52744Z" fill="#D6DCE8"/>
<path d="M32.972 7.97829L31.0863 8.78558L27.2157 5.82533L29.1015 5.01803L32.972 7.97829Z" fill="#D6DCE8"/>
<path d="M36.5906 6.42913L34.7049 7.23643L30.8344 4.27617L32.7201 3.46888L36.5906 6.42913Z" fill="#D6DCE8"/>
<path d="M40.1955 4.86949L40.2014 4.88332L38.3235 5.68728L34.4529 2.72703L36.3387 1.91974L40.1955 4.86949Z" fill="#D6DCE8"/>
<path d="M48.402 46.4958L30.8415 36.866L42.7353 15.3464C43.1225 14.6459 44.0048 14.3848 44.7112 14.7722L57.3378 21.6963L58.9764 27.3637L48.402 46.4958Z" fill="#F1F3F9" stroke="#D6DCE8" stroke-width="1.05161" stroke-miterlimit="10"/>
<path d="M38.5437 36.345L35.8875 34.8883C35.7883 34.834 35.8069 34.6134 35.9243 34.401C36.0418 34.1885 36.2189 34.0549 36.3181 34.1092L38.9743 35.5659C39.0735 35.6203 39.0549 35.8408 38.9375 36.0533C38.8004 36.3012 38.6429 36.3993 38.5437 36.345Z" fill="#D5DDEA"/>
<path d="M50.8336 23.6905L44.2203 20.0639C44.0665 19.9795 44.034 19.7274 44.1499 19.5177C44.2659 19.3079 44.4971 19.2004 44.6509 19.2848L51.2642 22.9114C51.418 22.9957 51.4504 23.2478 51.3345 23.4575C51.2186 23.6673 50.9874 23.7748 50.8336 23.6905Z" fill="#D6DCE8"/>
<path d="M45.4469 23.1059L43.1825 21.8641C43.0459 21.7892 43.0281 21.5452 43.1441 21.3354C43.26 21.1257 43.4765 21.0101 43.6131 21.0851L45.858 22.3161C45.9946 22.391 46.0124 22.635 45.8965 22.8448C45.7805 23.0545 45.564 23.1701 45.4469 23.1059Z" fill="#D6DCE8"/>
<path d="M49.8048 36.7683L41.8769 32.4208L41.0032 31.9417L38.3606 30.4925C38.254 30.4341 38.0578 30.538 37.9322 30.7652C37.8245 30.96 37.8021 31.2015 37.93 31.2716L40.5726 32.7208L41.4463 33.1999L49.3742 37.5474C49.4807 37.6058 49.677 37.5019 49.8026 37.2747C49.9069 37.0358 49.9113 36.8267 49.8048 36.7683Z" fill="#D6DCE8"/>
<path d="M50.9528 34.6902L48.0066 33.0746L47.0031 32.5243L39.5094 28.4149C39.4026 28.3564 39.2062 28.4602 39.0806 28.6874C38.9729 28.8822 38.9507 29.1238 39.0788 29.194L46.5725 33.3034L47.576 33.8537L50.5222 35.4693C50.629 35.5279 50.8254 35.4241 50.951 35.1969C51.0553 34.9579 51.0596 34.7488 50.9528 34.6902Z" fill="#D6DCE8"/>
<path d="M51.978 32.8831L51.2124 32.4632L50.4467 32.0434L40.5144 26.5967C40.4081 26.5384 40.212 26.6424 40.0865 26.8696C39.9788 27.0644 39.9562 27.3058 40.0838 27.3758L50.0161 32.8225L50.8668 33.289L51.5262 33.6505C51.6325 33.7088 51.8285 33.6049 51.9541 33.3776C52.0831 33.1945 52.0844 32.9414 51.978 32.8831Z" fill="#D6DCE8"/>
<path d="M53.1098 30.7962L50.6429 29.4434L50.0315 29.1081L41.661 24.518C41.5556 24.4602 41.3605 24.5647 41.2349 24.7919C41.1272 24.9867 41.1039 25.2277 41.2304 25.2971L49.6009 29.8872L50.2123 30.2225L52.6581 31.5637C52.8057 31.6447 52.9797 31.5286 53.1053 31.3014C53.213 31.1066 53.2363 30.8656 53.1098 30.7962Z" fill="#D6DCE8"/>
<path d="M57.2539 21.849L56.7573 22.7475C55.9145 24.2724 56.4697 26.1878 57.9975 27.0255L58.8925 27.5164" fill="#F1F3F9"/>
<path d="M57.2539 21.849L56.7573 22.7475C55.9145 24.2724 56.4697 26.1878 57.9975 27.0255L58.8925 27.5164" stroke="#D6DCE8" stroke-width="1.05161" stroke-miterlimit="10"/>
<path d="M28.8855 38.7026L10.0939 45.6547L1.5076 22.6263C1.22808 21.8766 1.60599 21.0407 2.36197 20.761L15.8737 15.7623L21.2518 18.2291L28.8855 38.7026Z" fill="#F1F3F9" stroke="#D6DCE8" stroke-width="1.05161" stroke-miterlimit="10"/>
<path d="M15.9287 15.9255L16.2867 16.8856C16.8954 18.5182 18.7136 19.3516 20.3477 18.747L21.3068 18.3922" fill="#F1F3F9"/>
<path d="M15.9287 15.9255L16.2867 16.8856C16.8954 18.5182 18.7136 19.3516 20.3477 18.747L21.3068 18.3922" stroke="#D6DCE8" stroke-width="1.05161" stroke-miterlimit="10"/>
<path d="M20.7675 30.3816L18.3841 29.114C17.2935 28.534 15.9395 29.0468 15.4795 30.2143L14.2689 33.2867L13.9783 33.1332C12.9238 32.5764 11.6183 33.0803 11.1848 34.2113C10.5595 35.8427 12.1205 37.4415 13.7351 36.8233L17.927 35.2183L20.5167 34.2152C22.1928 33.5659 22.3462 31.2212 20.7675 30.3816Z" fill="#D6DCE8"/>
<path d="M11.1915 30.3968C12.1631 29.8876 12.5668 28.7688 12.109 27.8541C11.6511 26.9395 10.528 26.6209 9.55635 27.1301C8.58471 27.6393 8.18101 28.758 8.63884 29.6727C9.09667 30.5874 10.2198 30.906 11.1915 30.3968Z" fill="#D6DCE8"/>
<path d="M43.8487 45.0688C43.8487 47.392 41.9654 49.2753 39.6422 49.2753H25.351C23.0278 49.2753 21.1445 47.392 21.1445 45.0688V21.4522C21.1445 20.5465 21.8767 19.8074 22.7901 19.8074H39.115L43.8487 24.539V45.0688Z" fill="white" stroke="#D6DCE8" stroke-width="1.05161" stroke-miterlimit="10"/>
<path d="M39.1182 20.0046V21.5814C39.1182 23.3238 40.5306 24.7362 42.273 24.7362H43.8518" fill="#F1F3F9"/>
<path d="M39.1182 20.0046V21.5814C39.1182 23.3238 40.5306 24.7362 42.273 24.7362H43.8518" stroke="#D6DCE8" stroke-width="1.05161" stroke-miterlimit="10"/>
<path d="M29.342 29.1232C30.3012 28.5021 31.4043 28.1677 32.6513 28.1677C35.9606 28.1677 38.6464 30.843 38.6464 34.1394C38.6464 37.4357 35.9606 40.1111 32.6513 40.1111C29.342 40.1111 26.6562 37.4357 26.6562 34.1394C26.6562 32.0373 27.7114 30.222 29.342 29.1232Z" fill="#D6DCE8" stroke="#AAB2C5" stroke-width="1.05161" stroke-miterlimit="10"/>
<path d="M30.0333 32.5537L30.4006 32.93L30.0333 32.5537C29.813 32.7688 29.7291 33.0591 29.7291 33.3093C29.7291 33.5595 29.813 33.8498 30.0333 34.0648C30.4584 34.4798 31.0815 34.5002 31.5261 34.126V36.6753C31.5261 37.337 32.094 37.77 32.6347 37.77C33.2813 37.77 33.7433 37.2337 33.7433 36.6753V34.126C34.1879 34.5002 34.811 34.4798 35.2361 34.0648C35.4476 33.8584 35.5767 33.5845 35.5767 33.2856C35.5767 32.9866 35.4476 32.7128 35.2361 32.5063L33.4391 30.7522C33.2573 30.5748 33.0159 30.5372 32.915 30.5241C32.7896 30.5078 32.6637 30.5078 32.5939 30.5079C32.5912 30.5079 32.5886 30.5079 32.5861 30.5079C32.3396 30.5079 32.0489 30.5862 31.8303 30.7996L30.0333 32.5537Z" fill="white" stroke="#AAB2C5" stroke-width="1.05161"/>
</svg>
