<svg width="21" height="20" viewBox="0 0 21 20" fill="none" xmlns="http://www.w3.org/2000/svg">
<g clip-path="url(#clip0_1795_884)">
<path d="M13.3484 13.3332L10.0151 9.9999M10.0151 9.9999L6.68177 13.3332M10.0151 9.9999V17.4999M17.0068 15.3249C17.8196 14.8818 18.4616 14.1806 18.8317 13.3321C19.2017 12.4835 19.2786 11.5359 19.0503 10.6388C18.8219 9.7417 18.3013 8.94616 17.5707 8.37778C16.84 7.80939 15.9408 7.50052 15.0151 7.4999H13.9651C13.7129 6.52427 13.2427 5.61852 12.5901 4.85073C11.9374 4.08295 11.1191 3.47311 10.1969 3.06708C9.27456 2.66104 8.27223 2.46937 7.2652 2.50647C6.25817 2.54358 5.27266 2.80849 4.38275 3.28129C3.49284 3.7541 2.7217 4.42249 2.12729 5.23622C1.53288 6.04996 1.13068 6.98785 0.95092 7.9794C0.771162 8.97095 0.818525 9.99035 1.08945 10.961C1.36037 11.9316 1.84781 12.8281 2.5151 13.5832" stroke="#1E90FF" stroke-width="1.67" stroke-linecap="round" stroke-linejoin="round"/>
</g>
<defs>
<clipPath id="clip0_1795_884">
<rect width="20" height="20" fill="white" transform="translate(0.0151367)"/>
</clipPath>
</defs>
</svg>
